<svg xmlns="http://www.w3.org/2000/svg" width="1200" height="400" viewBox="0 0 1200 400">
  <defs>
    <linearGradient id="bg" x1="0" y1="0" x2="1" y2="1">
      <stop offset="0%"   stop-color="#6400c8"/>
      <stop offset="100%" stop-color="#1a0048"/>
    </linearGradient>
    <radialGradient id="glow" cx="28%" cy="50%" r="50%">
      <stop offset="0%"   stop-color="#9000ff" stop-opacity="0.6"/>
      <stop offset="100%" stop-color="#9000ff" stop-opacity="0"/>
    </radialGradient>
    <filter id="blur1"><feGaussianBlur stdDeviation="5"/></filter>
    <filter id="blur2"><feGaussianBlur stdDeviation="18"/></filter>
  </defs>

  <rect width="1200" height="400" fill="url(#bg)"/>
  <rect width="1200" height="400" fill="url(#glow)"/>

  <!-- Sparkle glow halo -->
  <circle cx="310" cy="200" r="155" fill="#8820ff" opacity="0.22" filter="url(#blur2)"/>

  <!-- Main sparkle -->
  <path d="M458.00,200.00 L457.29,202.57 L455.19,205.07 L451.76,207.43 L447.08,209.59 L441.29,211.49 L434.53,213.09 L426.98,214.36 L418.83,215.29 L410.26,215.88 L401.47,216.13 L392.64,216.06 L383.95,215.72 L375.55,215.13 L367.57,214.35 L360.12,213.43 L353.27,212.41 L347.08,211.34 L341.58,210.26 L336.76,209.22 L332.62,208.23 L329.12,207.34 L326.21,206.55 L323.83,205.87 L321.92,205.31 L320.42,204.86 L319.26,204.52 L318.38,204.27 L317.72,204.11 L317.24,204.01 L316.88,203.97 L316.63,203.98 L316.44,204.02 L316.29,204.09 L316.18,204.17 L316.08,204.26 L316.00,204.36 L315.91,204.46 L315.83,204.56 L315.75,204.66 L315.67,204.76 L315.58,204.85 L315.50,204.95 L315.41,205.05 L315.32,205.14 L315.23,205.23 L315.14,205.32 L315.05,205.41 L314.95,205.50 L314.85,205.58 L314.76,205.67 L314.66,205.75 L314.56,205.83 L314.46,205.91 L314.36,206.00 L314.26,206.08 L314.17,206.18 L314.09,206.29 L314.02,206.44 L313.98,206.63 L313.97,206.88 L314.01,207.24 L314.11,207.72 L314.27,208.38 L314.52,209.26 L314.86,210.42 L315.31,211.92 L315.87,213.83 L316.55,216.21 L317.34,219.12 L318.23,222.62 L319.22,226.76 L320.26,231.58 L321.34,237.08 L322.41,243.27 L323.43,250.12 L324.35,257.57 L325.13,265.55 L325.72,273.95 L326.06,282.64 L326.13,291.47 L325.88,300.26 L325.29,308.83 L324.36,316.98 L323.09,324.53 L321.49,331.29 L319.59,337.08 L317.43,341.76 L315.07,345.19 L312.57,347.29 L310.00,348.00 L307.43,347.29 L304.93,345.19 L302.57,341.76 L300.41,337.08 L298.51,331.29 L296.91,324.53 L295.64,316.98 L294.71,308.83 L294.12,300.26 L293.87,291.47 L293.94,282.64 L294.28,273.95 L294.87,265.55 L295.65,257.57 L296.57,250.12 L297.59,243.27 L298.66,237.08 L299.74,231.58 L300.78,226.76 L301.77,222.62 L302.66,219.12 L303.45,216.21 L304.13,213.83 L304.69,211.92 L305.14,210.42 L305.48,209.26 L305.73,208.38 L305.89,207.72 L305.99,207.24 L306.03,206.88 L306.02,206.63 L305.98,206.44 L305.91,206.29 L305.83,206.18 L305.74,206.08 L305.64,206.00 L305.54,205.91 L305.44,205.83 L305.34,205.75 L305.24,205.67 L305.15,205.58 L305.05,205.50 L304.95,205.41 L304.86,205.32 L304.77,205.23 L304.68,205.14 L304.59,205.05 L304.50,204.95 L304.42,204.85 L304.33,204.76 L304.25,204.66 L304.17,204.56 L304.09,204.46 L304.00,204.36 L303.92,204.26 L303.82,204.17 L303.71,204.09 L303.56,204.02 L303.37,203.98 L303.12,203.97 L302.76,204.01 L302.28,204.11 L301.62,204.27 L300.74,204.52 L299.58,204.86 L298.08,205.31 L296.17,205.87 L293.79,206.55 L290.88,207.34 L287.38,208.23 L283.24,209.22 L278.42,210.26 L272.92,211.34 L266.73,212.41 L259.88,213.43 L252.43,214.35 L244.45,215.13 L236.05,215.72 L227.36,216.06 L218.53,216.13 L209.74,215.88 L201.17,215.29 L193.02,214.36 L185.47,213.09 L178.71,211.49 L172.92,209.59 L168.24,207.43 L164.81,205.07 L162.71,202.57 L162.00,200.00 L162.71,197.43 L164.81,194.93 L168.24,192.57 L172.92,190.41 L178.71,188.51 L185.47,186.91 L193.02,185.64 L201.17,184.71 L209.74,184.12 L218.53,183.87 L227.36,183.94 L236.05,184.28 L244.45,184.87 L252.43,185.65 L259.88,186.57 L266.73,187.59 L272.92,188.66 L278.42,189.74 L283.24,190.78 L287.38,191.77 L290.88,192.66 L293.79,193.45 L296.17,194.13 L298.08,194.69 L299.58,195.14 L300.74,195.48 L301.62,195.73 L302.28,195.89 L302.76,195.99 L303.12,196.03 L303.37,196.02 L303.56,195.98 L303.71,195.91 L303.82,195.83 L303.92,195.74 L304.00,195.64 L304.09,195.54 L304.17,195.44 L304.25,195.34 L304.33,195.24 L304.42,195.15 L304.50,195.05 L304.59,194.95 L304.68,194.86 L304.77,194.77 L304.86,194.68 L304.95,194.59 L305.05,194.50 L305.15,194.42 L305.24,194.33 L305.34,194.25 L305.44,194.17 L305.54,194.09 L305.64,194.00 L305.74,193.92 L305.83,193.82 L305.91,193.71 L305.98,193.56 L306.02,193.37 L306.03,193.12 L305.99,192.76 L305.89,192.28 L305.73,191.62 L305.48,190.74 L305.14,189.58 L304.69,188.08 L304.13,186.17 L303.45,183.79 L302.66,180.88 L301.77,177.38 L300.78,173.24 L299.74,168.42 L298.66,162.92 L297.59,156.73 L296.57,149.88 L295.65,142.43 L294.87,134.45 L294.28,126.05 L293.94,117.36 L293.87,108.53 L294.12,99.74 L294.71,91.17 L295.64,83.02 L296.91,75.47 L298.51,68.71 L300.41,62.92 L302.57,58.24 L304.93,54.81 L307.43,52.71 L310.00,52.00 L312.57,52.71 L315.07,54.81 L317.43,58.24 L319.59,62.92 L321.49,68.71 L323.09,75.47 L324.36,83.02 L325.29,91.17 L325.88,99.74 L326.13,108.53 L326.06,117.36 L325.72,126.05 L325.13,134.45 L324.35,142.43 L323.43,149.88 L322.41,156.73 L321.34,162.92 L320.26,168.42 L319.22,173.24 L318.23,177.38 L317.34,180.88 L316.55,183.79 L315.87,186.17 L315.31,188.08 L314.86,189.58 L314.52,190.74 L314.27,191.62 L314.11,192.28 L314.01,192.76 L313.97,193.12 L313.98,193.37 L314.02,193.56 L314.09,193.71 L314.17,193.82 L314.26,193.92 L314.36,194.00 L314.46,194.09 L314.56,194.17 L314.66,194.25 L314.76,194.33 L314.85,194.42 L314.95,194.50 L315.05,194.59 L315.14,194.68 L315.23,194.77 L315.32,194.86 L315.41,194.95 L315.50,195.05 L315.58,195.15 L315.67,195.24 L315.75,195.34 L315.83,195.44 L315.91,195.54 L316.00,195.64 L316.08,195.74 L316.18,195.83 L316.29,195.91 L316.44,195.98 L316.63,196.02 L316.88,196.03 L317.24,195.99 L317.72,195.89 L318.38,195.73 L319.26,195.48 L320.42,195.14 L321.92,194.69 L323.83,194.13 L326.21,193.45 L329.12,192.66 L332.62,191.77 L336.76,190.78 L341.58,189.74 L347.08,188.66 L353.27,187.59 L360.12,186.57 L367.57,185.65 L375.55,184.87 L383.95,184.28 L392.64,183.94 L401.47,183.87 L410.26,184.12 L418.83,184.71 L426.98,185.64 L434.53,186.91 L441.29,188.51 L447.08,190.41 L451.76,192.57 L455.19,194.93 L457.29,197.43 L458.00,200.00 Z" fill="white" opacity="0.95" filter="url(#blur1)"/>
  <!-- Inner bright core -->
  <path d="M382.00,200.00 L381.66,201.25 L380.64,202.47 L378.96,203.61 L376.69,204.66 L373.87,205.59 L370.58,206.37 L366.91,206.99 L362.94,207.44 L358.78,207.73 L354.50,207.85 L350.21,207.82 L345.98,207.65 L341.89,207.36 L338.01,206.98 L334.38,206.53 L331.05,206.04 L328.04,205.52 L325.36,204.99 L323.02,204.48 L321.00,204.01 L319.30,203.57 L317.88,203.19 L316.73,202.86 L315.80,202.58 L315.07,202.36 L314.50,202.20 L314.08,202.08 L313.76,202.00 L313.52,201.95 L313.35,201.93 L313.22,201.94 L313.13,201.96 L313.06,201.99 L313.01,202.03 L312.96,202.07 L312.92,202.12 L312.88,202.17 L312.84,202.22 L312.80,202.27 L312.76,202.31 L312.72,202.36 L312.68,202.41 L312.63,202.46 L312.59,202.50 L312.55,202.55 L312.50,202.59 L312.46,202.63 L312.41,202.68 L312.36,202.72 L312.31,202.76 L312.27,202.80 L312.22,202.84 L312.17,202.88 L312.12,202.92 L312.07,202.96 L312.03,203.01 L311.99,203.06 L311.96,203.13 L311.94,203.22 L311.93,203.35 L311.95,203.52 L312.00,203.76 L312.08,204.08 L312.20,204.50 L312.36,205.07 L312.58,205.80 L312.86,206.73 L313.19,207.88 L313.57,209.30 L314.01,211.00 L314.48,213.02 L314.99,215.36 L315.52,218.04 L316.04,221.05 L316.53,224.38 L316.98,228.01 L317.36,231.89 L317.65,235.98 L317.82,240.21 L317.85,244.50 L317.73,248.78 L317.44,252.94 L316.99,256.91 L316.37,260.58 L315.59,263.87 L314.66,266.69 L313.61,268.96 L312.47,270.64 L311.25,271.66 L310.00,272.00 L308.75,271.66 L307.53,270.64 L306.39,268.96 L305.34,266.69 L304.41,263.87 L303.63,260.58 L303.01,256.91 L302.56,252.94 L302.27,248.78 L302.15,244.50 L302.18,240.21 L302.35,235.98 L302.64,231.89 L303.02,228.01 L303.47,224.38 L303.96,221.05 L304.48,218.04 L305.01,215.36 L305.52,213.02 L305.99,211.00 L306.43,209.30 L306.81,207.88 L307.14,206.73 L307.42,205.80 L307.64,205.07 L307.80,204.50 L307.92,204.08 L308.00,203.76 L308.05,203.52 L308.07,203.35 L308.06,203.22 L308.04,203.13 L308.01,203.06 L307.97,203.01 L307.93,202.96 L307.88,202.92 L307.83,202.88 L307.78,202.84 L307.73,202.80 L307.69,202.76 L307.64,202.72 L307.59,202.68 L307.54,202.63 L307.50,202.59 L307.45,202.55 L307.41,202.50 L307.37,202.46 L307.32,202.41 L307.28,202.36 L307.24,202.31 L307.20,202.27 L307.16,202.22 L307.12,202.17 L307.08,202.12 L307.04,202.07 L306.99,202.03 L306.94,201.99 L306.87,201.96 L306.78,201.94 L306.65,201.93 L306.48,201.95 L306.24,202.00 L305.92,202.08 L305.50,202.20 L304.93,202.36 L304.20,202.58 L303.27,202.86 L302.12,203.19 L300.70,203.57 L299.00,204.01 L296.98,204.48 L294.64,204.99 L291.96,205.52 L288.95,206.04 L285.62,206.53 L281.99,206.98 L278.11,207.36 L274.02,207.65 L269.79,207.82 L265.50,207.85 L261.22,207.73 L257.06,207.44 L253.09,206.99 L249.42,206.37 L246.13,205.59 L243.31,204.66 L241.04,203.61 L239.36,202.47 L238.34,201.25 L238.00,200.00 L238.34,198.75 L239.36,197.53 L241.04,196.39 L243.31,195.34 L246.13,194.41 L249.42,193.63 L253.09,193.01 L257.06,192.56 L261.22,192.27 L265.50,192.15 L269.79,192.18 L274.02,192.35 L278.11,192.64 L281.99,193.02 L285.62,193.47 L288.95,193.96 L291.96,194.48 L294.64,195.01 L296.98,195.52 L299.00,195.99 L300.70,196.43 L302.12,196.81 L303.27,197.14 L304.20,197.42 L304.93,197.64 L305.50,197.80 L305.92,197.92 L306.24,198.00 L306.48,198.05 L306.65,198.07 L306.78,198.06 L306.87,198.04 L306.94,198.01 L306.99,197.97 L307.04,197.93 L307.08,197.88 L307.12,197.83 L307.16,197.78 L307.20,197.73 L307.24,197.69 L307.28,197.64 L307.32,197.59 L307.37,197.54 L307.41,197.50 L307.45,197.45 L307.50,197.41 L307.54,197.37 L307.59,197.32 L307.64,197.28 L307.69,197.24 L307.73,197.20 L307.78,197.16 L307.83,197.12 L307.88,197.08 L307.93,197.04 L307.97,196.99 L308.01,196.94 L308.04,196.87 L308.06,196.78 L308.07,196.65 L308.05,196.48 L308.00,196.24 L307.92,195.92 L307.80,195.50 L307.64,194.93 L307.42,194.20 L307.14,193.27 L306.81,192.12 L306.43,190.70 L305.99,189.00 L305.52,186.98 L305.01,184.64 L304.48,181.96 L303.96,178.95 L303.47,175.62 L303.02,171.99 L302.64,168.11 L302.35,164.02 L302.18,159.79 L302.15,155.50 L302.27,151.22 L302.56,147.06 L303.01,143.09 L303.63,139.42 L304.41,136.13 L305.34,133.31 L306.39,131.04 L307.53,129.36 L308.75,128.34 L310.00,128.00 L311.25,128.34 L312.47,129.36 L313.61,131.04 L314.66,133.31 L315.59,136.13 L316.37,139.42 L316.99,143.09 L317.44,147.06 L317.73,151.22 L317.85,155.50 L317.82,159.79 L317.65,164.02 L317.36,168.11 L316.98,171.99 L316.53,175.62 L316.04,178.95 L315.52,181.96 L314.99,184.64 L314.48,186.98 L314.01,189.00 L313.57,190.70 L313.19,192.12 L312.86,193.27 L312.58,194.20 L312.36,194.93 L312.20,195.50 L312.08,195.92 L312.00,196.24 L311.95,196.48 L311.93,196.65 L311.94,196.78 L311.96,196.87 L311.99,196.94 L312.03,196.99 L312.07,197.04 L312.12,197.08 L312.17,197.12 L312.22,197.16 L312.27,197.20 L312.31,197.24 L312.36,197.28 L312.41,197.32 L312.46,197.37 L312.50,197.41 L312.55,197.45 L312.59,197.50 L312.63,197.54 L312.68,197.59 L312.72,197.64 L312.76,197.69 L312.80,197.73 L312.84,197.78 L312.88,197.83 L312.92,197.88 L312.96,197.93 L313.01,197.97 L313.06,198.01 L313.13,198.04 L313.22,198.06 L313.35,198.07 L313.52,198.05 L313.76,198.00 L314.08,197.92 L314.50,197.80 L315.07,197.64 L315.80,197.42 L316.73,197.14 L317.88,196.81 L319.30,196.43 L321.00,195.99 L323.02,195.52 L325.36,195.01 L328.04,194.48 L331.05,193.96 L334.38,193.47 L338.01,193.02 L341.89,192.64 L345.98,192.35 L350.21,192.18 L354.50,192.15 L358.78,192.27 L362.94,192.56 L366.91,193.01 L370.58,193.63 L373.87,194.41 L376.69,195.34 L378.96,196.39 L380.64,197.53 L381.66,198.75 L382.00,200.00 Z" fill="white" opacity="1" filter="url(#blur1)"/>
  <circle cx="310" cy="200" r="16" fill="white" opacity="0.98"/>

  <!-- Accent sparkles -->
  <path d="M440.00,112.00 L439.81,112.69 L439.24,113.37 L438.31,114.01 L437.05,114.59 L435.48,115.10 L433.66,115.54 L431.62,115.88 L429.41,116.13 L427.10,116.29 L424.72,116.36 L422.34,116.34 L419.99,116.25 L417.72,116.09 L415.56,115.88 L413.55,115.63 L411.69,115.35 L410.02,115.06 L408.53,114.77 L407.23,114.49 L406.11,114.23 L405.17,113.98 L404.38,113.77 L403.74,113.59 L403.22,113.43 L402.82,113.31 L402.50,113.22 L402.26,113.15 L402.09,113.11 L401.96,113.08 L401.86,113.07 L401.79,113.08 L401.74,113.09 L401.70,113.10 L401.67,113.13 L401.64,113.15 L401.62,113.18 L401.60,113.20 L401.58,113.23 L401.55,113.26 L401.53,113.29 L401.51,113.31 L401.49,113.34 L401.46,113.36 L401.44,113.39 L401.41,113.41 L401.39,113.44 L401.36,113.46 L401.34,113.49 L401.31,113.51 L401.29,113.53 L401.26,113.55 L401.23,113.58 L401.20,113.60 L401.18,113.62 L401.15,113.64 L401.13,113.67 L401.10,113.70 L401.09,113.74 L401.08,113.79 L401.07,113.86 L401.08,113.96 L401.11,114.09 L401.15,114.26 L401.22,114.50 L401.31,114.82 L401.43,115.22 L401.59,115.74 L401.77,116.38 L401.98,117.17 L402.23,118.11 L402.49,119.23 L402.77,120.53 L403.06,122.02 L403.35,123.69 L403.63,125.55 L403.88,127.56 L404.09,129.72 L404.25,131.99 L404.34,134.34 L404.36,136.72 L404.29,139.10 L404.13,141.41 L403.88,143.62 L403.54,145.66 L403.10,147.48 L402.59,149.05 L402.01,150.31 L401.37,151.24 L400.69,151.81 L400.00,152.00 L399.31,151.81 L398.63,151.24 L397.99,150.31 L397.41,149.05 L396.90,147.48 L396.46,145.66 L396.12,143.62 L395.87,141.41 L395.71,139.10 L395.64,136.72 L395.66,134.34 L395.75,131.99 L395.91,129.72 L396.12,127.56 L396.37,125.55 L396.65,123.69 L396.94,122.02 L397.23,120.53 L397.51,119.23 L397.77,118.11 L398.02,117.17 L398.23,116.38 L398.41,115.74 L398.57,115.22 L398.69,114.82 L398.78,114.50 L398.85,114.26 L398.89,114.09 L398.92,113.96 L398.93,113.86 L398.92,113.79 L398.91,113.74 L398.90,113.70 L398.87,113.67 L398.85,113.64 L398.82,113.62 L398.80,113.60 L398.77,113.58 L398.74,113.55 L398.71,113.53 L398.69,113.51 L398.66,113.49 L398.64,113.46 L398.61,113.44 L398.59,113.41 L398.56,113.39 L398.54,113.36 L398.51,113.34 L398.49,113.31 L398.47,113.29 L398.45,113.26 L398.42,113.23 L398.40,113.20 L398.38,113.18 L398.36,113.15 L398.33,113.13 L398.30,113.10 L398.26,113.09 L398.21,113.08 L398.14,113.07 L398.04,113.08 L397.91,113.11 L397.74,113.15 L397.50,113.22 L397.18,113.31 L396.78,113.43 L396.26,113.59 L395.62,113.77 L394.83,113.98 L393.89,114.23 L392.77,114.49 L391.47,114.77 L389.98,115.06 L388.31,115.35 L386.45,115.63 L384.44,115.88 L382.28,116.09 L380.01,116.25 L377.66,116.34 L375.28,116.36 L372.90,116.29 L370.59,116.13 L368.38,115.88 L366.34,115.54 L364.52,115.10 L362.95,114.59 L361.69,114.01 L360.76,113.37 L360.19,112.69 L360.00,112.00 L360.19,111.31 L360.76,110.63 L361.69,109.99 L362.95,109.41 L364.52,108.90 L366.34,108.46 L368.38,108.12 L370.59,107.87 L372.90,107.71 L375.28,107.64 L377.66,107.66 L380.01,107.75 L382.28,107.91 L384.44,108.12 L386.45,108.37 L388.31,108.65 L389.98,108.94 L391.47,109.23 L392.77,109.51 L393.89,109.77 L394.83,110.02 L395.62,110.23 L396.26,110.41 L396.78,110.57 L397.18,110.69 L397.50,110.78 L397.74,110.85 L397.91,110.89 L398.04,110.92 L398.14,110.93 L398.21,110.92 L398.26,110.91 L398.30,110.90 L398.33,110.87 L398.36,110.85 L398.38,110.82 L398.40,110.80 L398.42,110.77 L398.45,110.74 L398.47,110.71 L398.49,110.69 L398.51,110.66 L398.54,110.64 L398.56,110.61 L398.59,110.59 L398.61,110.56 L398.64,110.54 L398.66,110.51 L398.69,110.49 L398.71,110.47 L398.74,110.45 L398.77,110.42 L398.80,110.40 L398.82,110.38 L398.85,110.36 L398.87,110.33 L398.90,110.30 L398.91,110.26 L398.92,110.21 L398.93,110.14 L398.92,110.04 L398.89,109.91 L398.85,109.74 L398.78,109.50 L398.69,109.18 L398.57,108.78 L398.41,108.26 L398.23,107.62 L398.02,106.83 L397.77,105.89 L397.51,104.77 L397.23,103.47 L396.94,101.98 L396.65,100.31 L396.37,98.45 L396.12,96.44 L395.91,94.28 L395.75,92.01 L395.66,89.66 L395.64,87.28 L395.71,84.90 L395.87,82.59 L396.12,80.38 L396.46,78.34 L396.90,76.52 L397.41,74.95 L397.99,73.69 L398.63,72.76 L399.31,72.19 L400.00,72.00 L400.69,72.19 L401.37,72.76 L402.01,73.69 L402.59,74.95 L403.10,76.52 L403.54,78.34 L403.88,80.38 L404.13,82.59 L404.29,84.90 L404.36,87.28 L404.34,89.66 L404.25,92.01 L404.09,94.28 L403.88,96.44 L403.63,98.45 L403.35,100.31 L403.06,101.98 L402.77,103.47 L402.49,104.77 L402.23,105.89 L401.98,106.83 L401.77,107.62 L401.59,108.26 L401.43,108.78 L401.31,109.18 L401.22,109.50 L401.15,109.74 L401.11,109.91 L401.08,110.04 L401.07,110.14 L401.08,110.21 L401.09,110.26 L401.10,110.30 L401.13,110.33 L401.15,110.36 L401.18,110.38 L401.20,110.40 L401.23,110.42 L401.26,110.45 L401.29,110.47 L401.31,110.49 L401.34,110.51 L401.36,110.54 L401.39,110.56 L401.41,110.59 L401.44,110.61 L401.46,110.64 L401.49,110.66 L401.51,110.69 L401.53,110.71 L401.55,110.74 L401.58,110.77 L401.60,110.80 L401.62,110.82 L401.64,110.85 L401.67,110.87 L401.70,110.90 L401.74,110.91 L401.79,110.92 L401.86,110.93 L401.96,110.92 L402.09,110.89 L402.26,110.85 L402.50,110.78 L402.82,110.69 L403.22,110.57 L403.74,110.41 L404.38,110.23 L405.17,110.02 L406.11,109.77 L407.23,109.51 L408.53,109.23 L410.02,108.94 L411.69,108.65 L413.55,108.37 L415.56,108.12 L417.72,107.91 L419.99,107.75 L422.34,107.66 L424.72,107.64 L427.10,107.71 L429.41,107.87 L431.62,108.12 L433.66,108.46 L435.48,108.90 L437.05,109.41 L438.31,109.99 L439.24,110.63 L439.81,111.31 L440.00,112.00 Z" fill="white" opacity="0.8" filter="url(#blur1)"/>
  <circle cx="400" cy="112" r="5" fill="white" opacity="0.95"/>
  <path d="M276.00,290.00 L275.87,290.49 L275.47,290.96 L274.82,291.41 L273.93,291.81 L272.84,292.17 L271.56,292.48 L270.13,292.72 L268.59,292.89 L266.97,293.00 L265.31,293.05 L263.64,293.04 L261.99,292.97 L260.40,292.86 L258.89,292.72 L257.48,292.54 L256.19,292.35 L255.02,292.14 L253.97,291.94 L253.06,291.74 L252.28,291.56 L251.62,291.39 L251.07,291.24 L250.62,291.11 L250.26,291.00 L249.97,290.92 L249.75,290.85 L249.59,290.81 L249.46,290.78 L249.37,290.76 L249.30,290.75 L249.25,290.75 L249.22,290.76 L249.19,290.77 L249.17,290.79 L249.15,290.81 L249.13,290.82 L249.12,290.84 L249.10,290.86 L249.09,290.88 L249.07,290.90 L249.06,290.92 L249.04,290.94 L249.02,290.95 L249.01,290.97 L248.99,290.99 L248.97,291.01 L248.95,291.02 L248.94,291.04 L248.92,291.06 L248.90,291.07 L248.88,291.09 L248.86,291.10 L248.84,291.12 L248.82,291.13 L248.81,291.15 L248.79,291.17 L248.77,291.19 L248.76,291.22 L248.75,291.25 L248.75,291.30 L248.76,291.37 L248.78,291.46 L248.81,291.59 L248.85,291.75 L248.92,291.97 L249.00,292.26 L249.11,292.62 L249.24,293.07 L249.39,293.62 L249.56,294.28 L249.74,295.06 L249.94,295.97 L250.14,297.02 L250.35,298.19 L250.54,299.48 L250.72,300.89 L250.86,302.40 L250.97,303.99 L251.04,305.64 L251.05,307.31 L251.00,308.97 L250.89,310.59 L250.72,312.13 L250.48,313.56 L250.17,314.84 L249.81,315.93 L249.41,316.82 L248.96,317.47 L248.49,317.87 L248.00,318.00 L247.51,317.87 L247.04,317.47 L246.59,316.82 L246.19,315.93 L245.83,314.84 L245.52,313.56 L245.28,312.13 L245.11,310.59 L245.00,308.97 L244.95,307.31 L244.96,305.64 L245.03,303.99 L245.14,302.40 L245.28,300.89 L245.46,299.48 L245.65,298.19 L245.86,297.02 L246.06,295.97 L246.26,295.06 L246.44,294.28 L246.61,293.62 L246.76,293.07 L246.89,292.62 L247.00,292.26 L247.08,291.97 L247.15,291.75 L247.19,291.59 L247.22,291.46 L247.24,291.37 L247.25,291.30 L247.25,291.25 L247.24,291.22 L247.23,291.19 L247.21,291.17 L247.19,291.15 L247.18,291.13 L247.16,291.12 L247.14,291.10 L247.12,291.09 L247.10,291.07 L247.08,291.06 L247.06,291.04 L247.05,291.02 L247.03,291.01 L247.01,290.99 L246.99,290.97 L246.98,290.95 L246.96,290.94 L246.94,290.92 L246.93,290.90 L246.91,290.88 L246.90,290.86 L246.88,290.84 L246.87,290.82 L246.85,290.81 L246.83,290.79 L246.81,290.77 L246.78,290.76 L246.75,290.75 L246.70,290.75 L246.63,290.76 L246.54,290.78 L246.41,290.81 L246.25,290.85 L246.03,290.92 L245.74,291.00 L245.38,291.11 L244.93,291.24 L244.38,291.39 L243.72,291.56 L242.94,291.74 L242.03,291.94 L240.98,292.14 L239.81,292.35 L238.52,292.54 L237.11,292.72 L235.60,292.86 L234.01,292.97 L232.36,293.04 L230.69,293.05 L229.03,293.00 L227.41,292.89 L225.87,292.72 L224.44,292.48 L223.16,292.17 L222.07,291.81 L221.18,291.41 L220.53,290.96 L220.13,290.49 L220.00,290.00 L220.13,289.51 L220.53,289.04 L221.18,288.59 L222.07,288.19 L223.16,287.83 L224.44,287.52 L225.87,287.28 L227.41,287.11 L229.03,287.00 L230.69,286.95 L232.36,286.96 L234.01,287.03 L235.60,287.14 L237.11,287.28 L238.52,287.46 L239.81,287.65 L240.98,287.86 L242.03,288.06 L242.94,288.26 L243.72,288.44 L244.38,288.61 L244.93,288.76 L245.38,288.89 L245.74,289.00 L246.03,289.08 L246.25,289.15 L246.41,289.19 L246.54,289.22 L246.63,289.24 L246.70,289.25 L246.75,289.25 L246.78,289.24 L246.81,289.23 L246.83,289.21 L246.85,289.19 L246.87,289.18 L246.88,289.16 L246.90,289.14 L246.91,289.12 L246.93,289.10 L246.94,289.08 L246.96,289.06 L246.98,289.05 L246.99,289.03 L247.01,289.01 L247.03,288.99 L247.05,288.98 L247.06,288.96 L247.08,288.94 L247.10,288.93 L247.12,288.91 L247.14,288.90 L247.16,288.88 L247.18,288.87 L247.19,288.85 L247.21,288.83 L247.23,288.81 L247.24,288.78 L247.25,288.75 L247.25,288.70 L247.24,288.63 L247.22,288.54 L247.19,288.41 L247.15,288.25 L247.08,288.03 L247.00,287.74 L246.89,287.38 L246.76,286.93 L246.61,286.38 L246.44,285.72 L246.26,284.94 L246.06,284.03 L245.86,282.98 L245.65,281.81 L245.46,280.52 L245.28,279.11 L245.14,277.60 L245.03,276.01 L244.96,274.36 L244.95,272.69 L245.00,271.03 L245.11,269.41 L245.28,267.87 L245.52,266.44 L245.83,265.16 L246.19,264.07 L246.59,263.18 L247.04,262.53 L247.51,262.13 L248.00,262.00 L248.49,262.13 L248.96,262.53 L249.41,263.18 L249.81,264.07 L250.17,265.16 L250.48,266.44 L250.72,267.87 L250.89,269.41 L251.00,271.03 L251.05,272.69 L251.04,274.36 L250.97,276.01 L250.86,277.60 L250.72,279.11 L250.54,280.52 L250.35,281.81 L250.14,282.98 L249.94,284.03 L249.74,284.94 L249.56,285.72 L249.39,286.38 L249.24,286.93 L249.11,287.38 L249.00,287.74 L248.92,288.03 L248.85,288.25 L248.81,288.41 L248.78,288.54 L248.76,288.63 L248.75,288.70 L248.75,288.75 L248.76,288.78 L248.77,288.81 L248.79,288.83 L248.81,288.85 L248.82,288.87 L248.84,288.88 L248.86,288.90 L248.88,288.91 L248.90,288.93 L248.92,288.94 L248.94,288.96 L248.95,288.98 L248.97,288.99 L248.99,289.01 L249.01,289.03 L249.02,289.05 L249.04,289.06 L249.06,289.08 L249.07,289.10 L249.09,289.12 L249.10,289.14 L249.12,289.16 L249.13,289.18 L249.15,289.19 L249.17,289.21 L249.19,289.23 L249.22,289.24 L249.25,289.25 L249.30,289.25 L249.37,289.24 L249.46,289.22 L249.59,289.19 L249.75,289.15 L249.97,289.08 L250.26,289.00 L250.62,288.89 L251.07,288.76 L251.62,288.61 L252.28,288.44 L253.06,288.26 L253.97,288.06 L255.02,287.86 L256.19,287.65 L257.48,287.46 L258.89,287.28 L260.40,287.14 L261.99,287.03 L263.64,286.96 L265.31,286.95 L266.97,287.00 L268.59,287.11 L270.13,287.28 L271.56,287.52 L272.84,287.83 L273.93,288.19 L274.82,288.59 L275.47,289.04 L275.87,289.51 L276.00,290.00 Z" fill="white" opacity="0.6" filter="url(#blur1)"/>
  <circle cx="248" cy="290" r="4" fill="white" opacity="0.90"/>

  <!-- Dot grid (right side) -->
    <circle cx="580" cy="40" r="2.2" fill="#c090ff" opacity="0.20"/>
  <circle cx="630" cy="40" r="2.2" fill="#c090ff" opacity="0.20"/>
  <circle cx="680" cy="40" r="2.2" fill="#c090ff" opacity="0.20"/>
  <circle cx="730" cy="40" r="2.2" fill="#c090ff" opacity="0.20"/>
  <circle cx="780" cy="40" r="2.2" fill="#c090ff" opacity="0.20"/>
  <circle cx="830" cy="40" r="2.2" fill="#c090ff" opacity="0.20"/>
  <circle cx="880" cy="40" r="2.2" fill="#c090ff" opacity="0.20"/>
  <circle cx="930" cy="40" r="2.2" fill="#c090ff" opacity="0.20"/>
  <circle cx="980" cy="40" r="2.2" fill="#c090ff" opacity="0.20"/>
  <circle cx="1030" cy="40" r="2.2" fill="#c090ff" opacity="0.20"/>
  <circle cx="1080" cy="40" r="2.2" fill="#c090ff" opacity="0.20"/>
  <circle cx="1130" cy="40" r="2.2" fill="#c090ff" opacity="0.20"/>
  <circle cx="1180" cy="40" r="2.2" fill="#c090ff" opacity="0.20"/>
  <circle cx="580" cy="98" r="2.2" fill="#c090ff" opacity="0.20"/>
  <circle cx="630" cy="98" r="2.2" fill="#c090ff" opacity="0.20"/>
  <circle cx="680" cy="98" r="2.2" fill="#c090ff" opacity="0.20"/>
  <circle cx="730" cy="98" r="2.2" fill="#c090ff" opacity="0.20"/>
  <circle cx="780" cy="98" r="2.2" fill="#c090ff" opacity="0.20"/>
  <circle cx="830" cy="98" r="2.2" fill="#c090ff" opacity="0.20"/>
  <circle cx="880" cy="98" r="2.2" fill="#c090ff" opacity="0.20"/>
  <circle cx="930" cy="98" r="2.2" fill="#c090ff" opacity="0.20"/>
  <circle cx="980" cy="98" r="2.2" fill="#c090ff" opacity="0.20"/>
  <circle cx="1030" cy="98" r="2.2" fill="#c090ff" opacity="0.20"/>
  <circle cx="1080" cy="98" r="2.2" fill="#c090ff" opacity="0.20"/>
  <circle cx="1130" cy="98" r="2.2" fill="#c090ff" opacity="0.20"/>
  <circle cx="1180" cy="98" r="2.2" fill="#c090ff" opacity="0.20"/>
  <circle cx="580" cy="156" r="2.2" fill="#c090ff" opacity="0.20"/>
  <circle cx="630" cy="156" r="2.2" fill="#c090ff" opacity="0.20"/>
  <circle cx="680" cy="156" r="2.2" fill="#c090ff" opacity="0.20"/>
  <circle cx="730" cy="156" r="2.2" fill="#c090ff" opacity="0.20"/>
  <circle cx="780" cy="156" r="2.2" fill="#c090ff" opacity="0.20"/>
  <circle cx="830" cy="156" r="2.2" fill="#c090ff" opacity="0.20"/>
  <circle cx="880" cy="156" r="2.2" fill="#c090ff" opacity="0.20"/>
  <circle cx="930" cy="156" r="2.2" fill="#c090ff" opacity="0.20"/>
  <circle cx="980" cy="156" r="2.2" fill="#c090ff" opacity="0.20"/>
  <circle cx="1030" cy="156" r="2.2" fill="#c090ff" opacity="0.20"/>
  <circle cx="1080" cy="156" r="2.2" fill="#c090ff" opacity="0.20"/>
  <circle cx="1130" cy="156" r="2.2" fill="#c090ff" opacity="0.20"/>
  <circle cx="1180" cy="156" r="2.2" fill="#c090ff" opacity="0.20"/>
  <circle cx="580" cy="214" r="2.2" fill="#c090ff" opacity="0.20"/>
  <circle cx="630" cy="214" r="2.2" fill="#c090ff" opacity="0.20"/>
  <circle cx="680" cy="214" r="2.2" fill="#c090ff" opacity="0.20"/>
  <circle cx="730" cy="214" r="2.2" fill="#c090ff" opacity="0.20"/>
  <circle cx="780" cy="214" r="2.2" fill="#c090ff" opacity="0.20"/>
  <circle cx="830" cy="214" r="2.2" fill="#c090ff" opacity="0.20"/>
  <circle cx="880" cy="214" r="2.2" fill="#c090ff" opacity="0.20"/>
  <circle cx="930" cy="214" r="2.2" fill="#c090ff" opacity="0.20"/>
  <circle cx="980" cy="214" r="2.2" fill="#c090ff" opacity="0.20"/>
  <circle cx="1030" cy="214" r="2.2" fill="#c090ff" opacity="0.20"/>
  <circle cx="1080" cy="214" r="2.2" fill="#c090ff" opacity="0.20"/>
  <circle cx="1130" cy="214" r="2.2" fill="#c090ff" opacity="0.20"/>
  <circle cx="1180" cy="214" r="2.2" fill="#c090ff" opacity="0.20"/>
  <circle cx="580" cy="272" r="2.2" fill="#c090ff" opacity="0.20"/>
  <circle cx="630" cy="272" r="2.2" fill="#c090ff" opacity="0.20"/>
  <circle cx="680" cy="272" r="2.2" fill="#c090ff" opacity="0.20"/>
  <circle cx="730" cy="272" r="2.2" fill="#c090ff" opacity="0.20"/>
  <circle cx="780" cy="272" r="2.2" fill="#c090ff" opacity="0.20"/>
  <circle cx="830" cy="272" r="2.2" fill="#c090ff" opacity="0.20"/>
  <circle cx="880" cy="272" r="2.2" fill="#c090ff" opacity="0.20"/>
  <circle cx="930" cy="272" r="2.2" fill="#c090ff" opacity="0.20"/>
  <circle cx="980" cy="272" r="2.2" fill="#c090ff" opacity="0.20"/>
  <circle cx="1030" cy="272" r="2.2" fill="#c090ff" opacity="0.20"/>
  <circle cx="1080" cy="272" r="2.2" fill="#c090ff" opacity="0.20"/>
  <circle cx="1130" cy="272" r="2.2" fill="#c090ff" opacity="0.20"/>
  <circle cx="1180" cy="272" r="2.2" fill="#c090ff" opacity="0.20"/>
  <circle cx="580" cy="330" r="2.2" fill="#c090ff" opacity="0.20"/>
  <circle cx="630" cy="330" r="2.2" fill="#c090ff" opacity="0.20"/>
  <circle cx="680" cy="330" r="2.2" fill="#c090ff" opacity="0.20"/>
  <circle cx="730" cy="330" r="2.2" fill="#c090ff" opacity="0.20"/>
  <circle cx="780" cy="330" r="2.2" fill="#c090ff" opacity="0.20"/>
  <circle cx="830" cy="330" r="2.2" fill="#c090ff" opacity="0.20"/>
  <circle cx="880" cy="330" r="2.2" fill="#c090ff" opacity="0.20"/>
  <circle cx="930" cy="330" r="2.2" fill="#c090ff" opacity="0.20"/>
  <circle cx="980" cy="330" r="2.2" fill="#c090ff" opacity="0.20"/>
  <circle cx="1030" cy="330" r="2.2" fill="#c090ff" opacity="0.20"/>
  <circle cx="1080" cy="330" r="2.2" fill="#c090ff" opacity="0.20"/>
  <circle cx="1130" cy="330" r="2.2" fill="#c090ff" opacity="0.20"/>
  <circle cx="1180" cy="330" r="2.2" fill="#c090ff" opacity="0.20"/>

  <!-- Separator -->
  <line x1="564" y1="50" x2="564" y2="350" stroke="#c0a0ff" stroke-width="1" stroke-opacity="0.18"/>

  <!-- Title -->
  <text x="600" y="175" font-family="-apple-system,BlinkMacSystemFont,'Segoe UI',Helvetica,Arial,sans-serif"
        font-size="66" font-weight="700" fill="#ffffff" letter-spacing="-1">Homey MCP Server</text>

  <!-- Tagline -->
  <text x="602" y="224" font-family="-apple-system,BlinkMacSystemFont,'Segoe UI',Helvetica,Arial,sans-serif"
        font-size="25" fill="#d0a8ff" letter-spacing="0.2">Connect any AI agent to your smart home</text>

  <!-- Pills -->
  <rect x="602" y="262" width="108" height="32" rx="16" fill="#ffffff" fill-opacity="0.12"/>
  <text x="656" y="283" font-family="'Segoe UI',sans-serif" font-size="14" font-weight="600"
        fill="#e8d0ff" text-anchor="middle">81 Tools</text>

  <rect x="720" y="262" width="100" height="32" rx="16" fill="#ffffff" fill-opacity="0.12"/>
  <text x="770" y="283" font-family="'Segoe UI',sans-serif" font-size="14" font-weight="600"
        fill="#e8d0ff" text-anchor="middle">SDK v3</text>

  <rect x="830" y="262" width="148" height="32" rx="16" fill="#ffffff" fill-opacity="0.12"/>
  <text x="904" y="283" font-family="'Segoe UI',sans-serif" font-size="14" font-weight="600"
        fill="#e8d0ff" text-anchor="middle">MCP 2025-03-26</text>
</svg>